Coordinates
version=1
nRows=24
nColumns=38
inDegrees=no

Units are S.I. units (second, meters, Newtons, ...)
If the header above contains a line with 'inDegrees', this indicates whether rotational values are in degrees (yes) or radians (no).

endheader
time	pelvis_tilt	pelvis_list	pelvis_rotation	pelvis_tx	pelvis_ty	pelvis_tz	hip_flexion_r	hip_adduction_r	hip_rotation_r	knee_angle_r	ankle_angle_r	subtalar_angle_r	mtp_angle_r	hip_flexion_l	hip_adduction_l	hip_rotation_l	knee_angle_l	ankle_angle_l	subtalar_angle_l	mtp_angle_l	lumbar_extension	lumbar_bending	lumbar_rotation	arm_flex_r	arm_add_r	arm_rot_r	elbow_flex_r	pro_sup_r	wrist_flex_r	wrist_dev_r	arm_flex_l	arm_add_l	arm_rot_l	elbow_flex_l	pro_sup_l	wrist_flex_l	wrist_dev_l
55	2.53592	1.46684	-0.833096	0.661855	0.668915	0.939255	-0.140122	-0.0460089	-0.295997	0.197918	-0.299878	0	0	-0.196313	-0.16304	-0.325117	0.0318452	-0.47333	0	0	-0.205548	0.138668	-0.182636	0.296927	-0.317236	0.846818	0.604169	0.986988	0	0	0.0768967	-0.159129	0.318167	0.593851	1.56003	0	0
55.01	2.54143	1.46574	-0.838714	0.662138	0.669143	0.939256	-0.142407	-0.044961	-0.296525	0.196202	-0.299334	0	0	-0.198601	-0.163689	-0.325548	0.030806	-0.472854	0	0	-0.205898	0.137962	-0.18185	0.294599	-0.314414	0.846292	0.605235	0.984323	0	0	0.0751488	-0.159647	0.324889	0.593439	1.56204	0	0
55.02	2.53573	1.46693	-0.834024	0.662384	0.669249	0.939066	-0.140632	-0.045305	-0.295276	0.196857	-0.298328	0	0	-0.19766	-0.16331	-0.326176	0.0306756	-0.472155	0	0	-0.20375	0.136789	-0.180815	0.292639	-0.312345	0.846536	0.606829	0.984242	0	0	0.0732372	-0.159861	0.330415	0.592815	1.56443	0	0
55.03	2.52713	1.46822	-0.826079	0.662557	0.669351	0.938862	-0.138501	-0.0456	-0.294368	0.1977	-0.297434	0	0	-0.195988	-0.163175	-0.326792	0.0312099	-0.471249	0	0	-0.201154	0.135894	-0.180202	0.29101	-0.311304	0.848021	0.609253	0.985984	0	0	0.0713155	-0.160287	0.335861	0.592498	1.5663	0	0
55.04	2.51615	1.46955	-0.815568	0.662696	0.669451	0.938651	-0.136283	-0.0457393	-0.293261	0.198383	-0.29652	0	0	-0.193829	-0.163261	-0.327375	0.0322429	-0.470196	0	0	-0.198198	0.135159	-0.179814	0.289412	-0.310784	0.849992	0.612112	0.988366	0	0	0.069458	-0.161107	0.341567	0.592491	1.56795	0	0
55.05	2.50767	1.47051	-0.807268	0.662817	0.669534	0.938505	-0.134628	-0.0457554	-0.292163	0.199081	-0.295689	0	0	-0.192005	-0.163571	-0.327575	0.0335416	-0.469323	0	0	-0.195729	0.134594	-0.179902	0.287638	-0.310133	0.851219	0.615162	0.990014	0	0	0.0676065	-0.162198	0.34654	0.592786	1.56921	0	0
55.06	2.50073	1.47137	-0.800332	0.662944	0.669625	0.938394	-0.133127	-0.0457574	-0.291299	0.199949	-0.294845	0	0	-0.190409	-0.16384	-0.327638	0.0347356	-0.468595	0	0	-0.193289	0.133984	-0.180208	0.286208	-0.30982	0.853294	0.618115	0.992921	0	0	0.0658955	-0.163693	0.351788	0.593171	1.57017	0	0
55.07	2.49704	1.472	-0.796482	0.663054	0.669721	0.93833	-0.13213	-0.0458274	-0.290672	0.200758	-0.294235	0	0	-0.189418	-0.163964	-0.327604	0.0355057	-0.468119	0	0	-0.191202	0.133268	-0.180665	0.285171	-0.309915	0.855889	0.621076	0.995991	0	0	0.0643793	-0.165394	0.356691	0.593531	1.5708	0	0
55.08	2.49313	1.47245	-0.792232	0.663136	0.66981	0.938263	-0.131336	-0.045702	-0.290092	0.201421	-0.293766	0	0	-0.188603	-0.164233	-0.327531	0.0361219	-0.467687	0	0	-0.189173	0.132811	-0.18133	0.283914	-0.310021	0.85784	0.624084	0.997979	0	0	0.0631532	-0.167229	0.361601	0.593672	1.5708	0	0
55.09	2.49037	1.47259	-0.788961	0.663197	0.669898	0.938218	-0.131016	-0.0453522	-0.289538	0.201765	-0.293515	0	0	-0.188151	-0.164627	-0.327491	0.0365506	-0.467411	0	0	-0.187423	0.132645	-0.182343	0.282567	-0.310029	0.85936	0.626894	0.999413	0	0	0.0619531	-0.169128	0.365769	0.593843	1.5708	0	0
55.1	2.48784	1.47256	-0.785939	0.663267	0.670018	0.938198	-0.131035	-0.0447752	-0.288988	0.201734	-0.293348	0	0	-0.187967	-0.165103	-0.327637	0.0367934	-0.467204	0	0	-0.185703	0.132625	-0.183336	0.281542	-0.31028	0.861481	0.629202	1.00173	0	0	0.0609428	-0.171023	0.369537	0.593672	1.5708	0	0
55.11	2.48534	1.47249	-0.783298	0.663377	0.6702	0.938188	-0.131198	-0.0441959	-0.288127	0.201532	-0.29324	0	0	-0.188062	-0.165513	-0.32834	0.0367956	-0.467004	0	0	-0.183948	0.132558	-0.184068	0.280696	-0.310642	0.86384	0.630988	1.00438	0	0	0.059958	-0.172971	0.372909	0.59332	1.5708	0	0
55.12	2.4836	1.47234	-0.781543	0.66351	0.670425	0.938186	-0.131629	-0.0435881	-0.28752	0.201042	-0.293188	0	0	-0.188343	-0.165969	-0.329339	0.0368015	-0.466741	0	0	-0.182267	0.132468	-0.184798	0.279912	-0.310937	0.865957	0.632238	1.00686	0	0	0.0590298	-0.174959	0.375743	0.592739	1.5708	0	0
55.13	2.48313	1.47186	-0.780462	0.663565	0.670583	0.938192	-0.132495	-0.0428009	-0.287807	0.200433	-0.293132	0	0	-0.188466	-0.166782	-0.329749	0.037355	-0.466389	0	0	-0.181079	0.132627	-0.186068	0.279354	-0.31132	0.867679	0.633178	1.00909	0	0	0.0584653	-0.176957	0.378056	0.592007	1.5708	0	0
55.14	2.48353	1.47124	-0.780018	0.663578	0.670707	0.938198	-0.133527	-0.0419952	-0.28842	0.199881	-0.292955	0	0	-0.188556	-0.167682	-0.32987	0.0381507	-0.465976	0	0	-0.180248	0.132936	-0.187452	0.279045	-0.3121	0.869378	0.634052	1.0115	0	0	0.0582399	-0.178904	0.379959	0.591133	1.5708	0	0
55.15	2.48143	1.47087	-0.77702	0.663583	0.670825	0.938164	-0.134023	-0.0412845	-0.289129	0.199712	-0.292363	0	0	-0.188137	-0.168614	-0.329769	0.0391458	-0.465423	0	0	-0.179071	0.133274	-0.188771	0.27888	-0.313213	0.871234	0.634626	1.01441	0	0	0.0582507	-0.180819	0.381767	0.590078	1.5708	0	0
55.16	2.48144	1.47131	-0.776976	0.663606	0.67079	0.938094	-0.133548	-0.0416262	-0.288152	0.199799	-0.293149	0	0	-0.187465	-0.168308	-0.329317	0.0394865	-0.466254	0	0	-0.178019	0.133108	-0.189948	0.280228	-0.314447	0.876537	0.634653	1.00928	0	0	0.0581674	-0.182306	0.381088	0.589102	1.5708	0	0
55.17	2.47825	1.47226	-0.77382	0.663642	0.67076	0.93798	-0.132056	-0.0422779	-0.287312	0.200921	-0.292515	0	0	-0.185952	-0.167962	-0.329251	0.040499	-0.465703	0	0	-0.17646	0.132801	-0.190367	0.279592	-0.314984	0.875803	0.634151	1.0094	0	0	0.0588788	-0.183831	0.381856	0.587351	1.5708	0	0
55.18	2.47587	1.4731	-0.771453	0.663669	0.670731	0.937879	-0.13064	-0.0429321	-0.286768	0.202182	-0.291767	0	0	-0.184664	-0.167641	-0.329292	0.0414169	-0.46515	0	0	-0.175116	0.132452	-0.190641	0.279165	-0.315724	0.87508	0.633179	1.00913	0	0	0.059845	-0.185358	0.382624	0.585444	1.5708	0	0
55.19	2.4753	1.47358	-0.770897	0.663681	0.670696	0.937818	-0.129666	-0.0434134	-0.286248	0.203322	-0.291126	0	0	-0.183932	-0.167403	-0.329324	0.0420731	-0.464724	0	0	-0.174266	0.132307	-0.190921	0.27928	-0.316763	0.874838	0.63183	1.00951	0	0	0.06085	-0.186814	0.382822	0.583648	1.5708	0	0
55.2	2.47607	1.47381	-0.771583	0.663638	0.670664	0.9378	-0.129084	-0.0438301	-0.28587	0.204311	-0.290502	0	0	-0.183424	-0.167189	-0.32928	0.0428177	-0.464278	0	0	-0.173713	0.132369	-0.191326	0.279778	-0.318002	0.87525	0.629756	1.01108	0	0	0.0619956	-0.18808	0.382602	0.581722	1.5708	0	0
55.21	2.4788	1.47374	-0.774045	0.663538	0.670642	0.937818	-0.129047	-0.0441889	-0.285925	0.205089	-0.290024	0	0	-0.183123	-0.167075	-0.329086	0.0438211	-0.46382	0	0	-0.173591	0.13268	-0.19195	0.280147	-0.319048	0.874926	0.627286	1.01192	0	0	0.0631663	-0.189255	0.382026	0.579931	1.5708	0	0
55.22	2.47654	1.47414	-0.771585	0.66351	0.670616	0.93777	-0.127817	-0.0445498	-0.285992	0.207227	-0.285027	0	0	-0.181819	-0.167204	-0.329764	0.0456293	-0.459703	0	0	-0.172527	0.132902	-0.189934	0.27568	-0.319498	0.860673	0.62548	1.02452	0	0	0.0674333	-0.191167	0.390422	0.57574	1.5708	0	0
55.23	2.47782	1.47371	-0.772578	0.66348	0.670585	0.937787	-0.128312	-0.0441834	-0.285582	0.206913	-0.286117	0	0	-0.182062	-0.167486	-0.329957	0.0456251	-0.460587	0	0	-0.172859	0.133497	-0.191018	0.276993	-0.320504	0.861389	0.622441	1.02397	0	0	0.0677474	-0.191972	0.385872	0.574977	1.5708	0	0
